{
	"asset":{
		"version":"2.0",
		"generator":""
	},
	"scenes":[{
		"nodes":[0,
		1,
		2]
	}],
	"nodes":[{
		"name":"body",
		"mesh":0,
		"translation":[0.0,
		0.43606284260749819,
		-0.00047687062760815024],
		"rotation":[0.0,
		0.0,
		0.0,
		-1.0],
		"scale":[2.0,
		2.0,
		2.0]
	},
	{
		"name":"leftPillowBottom",
		"mesh":1,
		"translation":[-0.45092809200286868,
		0.33630433678627016,
		0.07065526396036148],
		"rotation":[0.0,
		0.0,
		0.0,
		-1.0],
		"scale":[2.0,
		2.0,
		2.0]
	},
	{
		"name":"rightPillowBottom",
		"mesh":2,
		"translation":[0.4523278772830963,
		0.33630433678627016,
		0.07065526396036148],
		"rotation":[0.0,
		0.0,
		0.0,
		-1.0],
		"scale":[2.0,
		2.0,
		2.0]
	}],
	"meshes":[{
		"name":"body",
		"primitives":[{
			"attributes":{
				"POSITION":1,
				"NORMAL":2,
				"TEXCOORD_0":3
			},
			"indices":0,
			"material":0
		}]
	},
	{
		"name":"leftPillowBottom",
		"primitives":[{
			"attributes":{
				"POSITION":5,
				"NORMAL":6,
				"TEXCOORD_0":7
			},
			"indices":4,
			"material":0
		}]
	},
	{
		"name":"rightPillowBottom",
		"primitives":[{
			"attributes":{
				"POSITION":9,
				"NORMAL":10,
				"TEXCOORD_0":11
			},
			"indices":8,
			"material":0
		}]
	}],
	"accessors":[{
		"bufferView":0,
		"type":"SCALAR",
		"componentType":5123,
		"count":14142,
		"byteOffset":0,
		"min":[0],
		"max":[14141]
	},
	{
		"bufferView":1,
		"type":"VEC3",
		"componentType":5126,
		"count":14142,
		"byteOffset":0,
		"min":[-0.5141462683677673,
		-0.21788617968559266,
		-0.2504078447818756],
		"max":[0.5141462683677673,
		0.21788617968559266,
		0.2504078447818756]
	},
	{
		"bufferView":1,
		"type":"VEC3",
		"componentType":5126,
		"count":14142,
		"byteOffset":12,
		"min":[-1.0,
		-0.9996804594993591,
		-1.0],
		"max":[1.0,
		1.0,
		1.0]
	},
	{
		"bufferView":1,
		"type":"VEC2",
		"componentType":5126,
		"count":14142,
		"byteOffset":24,
		"min":[0.0071000000461936,
		0.016100000590085985],
		"max":[1.0023000240325928,
		0.9950000047683716]
	},
	{
		"bufferView":2,
		"type":"SCALAR",
		"componentType":5123,
		"count":4452,
		"byteOffset":0,
		"min":[0],
		"max":[4451]
	},
	{
		"bufferView":3,
		"type":"VEC3",
		"componentType":5126,
		"count":4452,
		"byteOffset":0,
		"min":[-0.2357906848192215,
		-0.09368708729743958,
		-0.21531866490840913],
		"max":[0.2357906848192215,
		0.09368708729743958,
		0.21531866490840913]
	},
	{
		"bufferView":3,
		"type":"VEC3",
		"componentType":5126,
		"count":4452,
		"byteOffset":12,
		"min":[-0.9949309825897217,
		-0.997961163520813,
		-0.9983627796173096],
		"max":[0.999289870262146,
		0.99932861328125,
		0.9999842643737793]
	},
	{
		"bufferView":3,
		"type":"VEC2",
		"componentType":5126,
		"count":4452,
		"byteOffset":24,
		"min":[0.00989999994635582,
		0.0032999999821186067],
		"max":[0.9972000122070313,
		0.9807000160217285]
	},
	{
		"bufferView":4,
		"type":"SCALAR",
		"componentType":5123,
		"count":4452,
		"byteOffset":0,
		"min":[0],
		"max":[4451]
	},
	{
		"bufferView":5,
		"type":"VEC3",
		"componentType":5126,
		"count":4452,
		"byteOffset":0,
		"min":[-0.23579132556915284,
		-0.09368708729743958,
		-0.21531866490840913],
		"max":[0.23579132556915284,
		0.09368708729743958,
		0.21531866490840913]
	},
	{
		"bufferView":5,
		"type":"VEC3",
		"componentType":5126,
		"count":4452,
		"byteOffset":12,
		"min":[-0.999289870262146,
		-0.997961163520813,
		-0.9983627796173096],
		"max":[0.9949309825897217,
		0.99932861328125,
		0.9999840259552002]
	},
	{
		"bufferView":5,
		"type":"VEC2",
		"componentType":5126,
		"count":4452,
		"byteOffset":24,
		"min":[0.00989999994635582,
		0.0032999999821186067],
		"max":[0.9972000122070313,
		0.9807000160217285]
	}],
	"bufferViews":[{
		"buffer":0,
		"byteOffset":0,
		"byteLength":28284,
		"target":34963
	},
	{
		"buffer":0,
		"byteOffset":28284,
		"byteLength":452544,
		"target":34962,
		"byteStride":32
	},
	{
		"buffer":1,
		"byteOffset":0,
		"byteLength":8904,
		"target":34963
	},
	{
		"buffer":1,
		"byteOffset":8904,
		"byteLength":142464,
		"target":34962,
		"byteStride":32
	},
	{
		"buffer":2,
		"byteOffset":0,
		"byteLength":8904,
		"target":34963
	},
	{
		"buffer":2,
		"byteOffset":8904,
		"byteLength":142464,
		"target":34962,
		"byteStride":32
	}],
	"buffers":[{
		"uri":"data:application/octet-stream;base64,",
		"byteLength":480828
	},
	{
		"uri":"data:application/octet-stream;base64,",
		"byteLength":151368
	},
	{
		"uri":"data:application/octet-stream;base64,",
		"byteLength":151368
	}],
	"materials":[{
		"pbrMetallicRoughness":{
			"baseColorFactor":[0.75,
			0.75,
			0.75,
			1.0],
			"metallicFactor":0.0,
			"roughnessFactor":1.0
		},
		"emissiveFactor":[0.0,
		0.0,
		0.0],
		"name":"default",
		"alphaMode":"OPAQUE",
		"doubleSided":false
	}]
}